<svg xmlns="http://www.w3.org/2000/svg" viewBox="0 0 52 52" id="portfolio"><path d="M48.167 13.13c-1.438 1.954-5.363 2.742-7.51 3.949-2.88 1.62-5.526 3.475-8.944 3.699-1.598.104-1.61 2.605 0 2.5 3.915-.256 6.87-2.165 10.206-4.04 2.877-1.618 6.372-2.082 8.407-4.847.955-1.297-1.214-2.545-2.159-1.262zM1.052 14.631c.863 1.038 1.861 1.464 3.032 2.119 1.694.948 3.14 2.253 4.814 3.225 3.35 1.946 7.335 2.543 11.062 3.385 1.567.354 2.236-2.055.664-2.41-3.508-.794-7.304-1.318-10.464-3.133-1.345-.773-2.495-1.834-3.813-2.645-1.237-.761-2.57-1.158-3.527-2.308-1.03-1.238-2.79.539-1.768 1.767z"></path><path d="M22.355 22.478c.123-.584 3.34-.753 3.868-.789.738-.05 1.632-.126 2.224.431.262.187.407.43.432.73.173.38-.027.48-.6.3-1.023.232-2.517.256-3.578.34-1.612.127-1.585-.154-2.19-1.38-.713-1.442-2.87-.176-2.159 1.262.524 1.061.465 1.83 1.736 2.347 1.333.541 2.805.242 4.174.06 2.006-.267 5.422.188 5.21-2.904-.16-2.36-2.44-3.737-4.602-3.73-2.025.005-6.4.167-6.926 2.668-.33 1.57 2.08 2.241 2.411.665z"></path><path d="M3.133 13.512c.042.451 32.875-1.278 35.986-1.22 2.773.054 8.05-.388 9.638 2.181 1.018 1.647.42 6.818.425 8.83.006 2.658-.362 5.277-.448 7.926-.097 3.011.82 6.199.36 9.193.096 1.115-.243 2.122-1.017 3.021-.133 1.763-.98 2.484-2.542 2.16-1.537.482-3.455.023-5.043-.062-3.214-.173-6.42-.305-9.638-.334-6.113-.054-12.226.134-18.338.026-3.071-.055-8.32.69-9.546-2.9-.848-2.48-.087-6.911-.084-9.505.01-6.338.163-12.674.42-19.007.064-1.609-2.436-1.606-2.5 0C.42 23.31.192 32.84.47 42.334c.058 2.008-.188 2.976 1.446 4.035 2.403 1.558 6.907 1.27 9.635 1.348 9.653.277 19.29-.196 28.94.324 5.442.293 10.349.777 10.985-5.646.457-4.612-.347-9.185-.016-13.804.296-4.124.237-8.23-.081-12.354-.459-5.939-3.849-5.942-9.56-6.329-8.83-.597-17.798.609-26.641.744-2.704.04-15.007-2.14-14.545 2.86.147 1.589 2.648 1.604 2.5 0z"></path><path d="M41.01 18.848c.663 4.877-.076 9.227-.197 14.044-.115 4.59.291 9.252.442 13.842.053 1.605 2.553 1.612 2.5 0-.164-5.011-.76-10.232-.401-15.24.33-4.613.701-8.644.066-13.31-.215-1.587-2.625-.911-2.41.664zM8.546 19.159c.553 2.526-.375 4.17-.6 6.575-.169 1.79.1 3.38.245 5.141.382 4.66-.202 9.36-.513 14.022-.107 1.607 2.393 1.6 2.5 0 .318-4.768.934-9.589.496-14.355-.378-4.126 1.173-7.981.283-12.048-.344-1.57-2.754-.906-2.41.665zM20.268 9.99c-.377-.72-.374-1.423.007-2.107.662-1.033 1.543-1.45 2.641-1.25 1.174-.205 2.539-.04 3.733-.057.776-.012 3.085-.444 3.699.032.855.664.676 2.67.797 3.709.183 1.58 2.685 1.598 2.5 0-.208-1.795.033-4.626-1.734-5.748-2.138-1.357-6.109-.48-8.462-.445-2.294.035-4.118-.025-5.24 2.228-.913 1.83-1.203 3.879.291 5.406 1.127 1.152 2.894-.616 1.768-1.767z"></path></svg>