<?xml version="1.0" encoding="UTF-8"?>
<!DOCTYPE svg PUBLIC "-//W3C//DTD SVG 1.1//EN" "http://www.w3.org/Graphics/SVG/1.1/DTD/svg11.dtd">
<svg xmlns="http://www.w3.org/2000/svg" version="1.1" width="800px" height="800px" style="shape-rendering:geometricPrecision; text-rendering:geometricPrecision; image-rendering:optimizeQuality; fill-rule:evenodd; clip-rule:evenodd" xmlns:xlink="http://www.w3.org/1999/xlink">
<g><path style="opacity:0.95" fill="#94191d" d="M 155.5,185.5 C 163.174,185.334 170.841,185.5 178.5,186C 185.692,188.016 191.359,192.183 195.5,198.5C 208.467,186.255 223.801,182.088 241.5,186C 254.306,189.806 261.806,198.306 264,211.5C 264.5,235.164 264.667,258.831 264.5,282.5C 252.5,282.5 240.5,282.5 228.5,282.5C 228.667,261.831 228.5,241.164 228,220.5C 225.525,214.254 220.859,211.254 214,211.5C 206.696,211.804 202.029,215.471 200,222.5C 199.5,242.497 199.333,262.497 199.5,282.5C 187.5,282.5 175.5,282.5 163.5,282.5C 163.667,261.831 163.5,241.164 163,220.5C 160.525,214.254 155.859,211.254 149,211.5C 141.696,211.804 137.029,215.471 135,222.5C 134.5,242.497 134.333,262.497 134.5,282.5C 122.833,282.5 111.167,282.5 99.5,282.5C 99.5,250.833 99.5,219.167 99.5,187.5C 111.167,187.5 122.833,187.5 134.5,187.5C 134.334,191.514 134.501,195.514 135,199.5C 140.257,192.46 147.09,187.793 155.5,185.5 Z"/></g>
<g><path style="opacity:0.941" fill="#951a1c" d="M 257.5,185.5 C 271.171,185.333 284.837,185.5 298.5,186C 303.954,196.411 309.787,206.578 316,216.5C 320.774,206.618 325.274,196.618 329.5,186.5C 342.167,185.167 354.833,185.167 367.5,186.5C 351.167,217.833 334.833,249.167 318.5,280.5C 305.517,281.499 292.517,281.832 279.5,281.5C 284.27,269.958 289.603,258.624 295.5,247.5C 282.811,226.778 270.144,206.111 257.5,185.5 Z"/></g>
<g><path style="opacity:0.94" fill="#f15a2b" d="M 378.5,219.5 C 383.167,219.5 387.833,219.5 392.5,219.5C 392.277,221.342 391.943,223.175 391.5,225C 392.658,228.681 393.491,232.514 394,236.5C 397.142,237.978 399.642,240.145 401.5,243C 406.897,244.022 412.23,244.355 417.5,244C 421.642,263.383 414.642,277.05 396.5,285C 378.004,289.844 364.17,284.011 355,267.5C 347.66,243.85 355.493,227.85 378.5,219.5 Z"/></g>
<g><path style="opacity:0.937" fill="#f15b2b" d="M 206.5,289.5 C 225.701,286.954 241.867,292.62 255,306.5C 262.706,318.72 265.706,332.053 264,346.5C 243.242,347.493 222.409,347.827 201.5,347.5C 202.441,357 207.774,362 217.5,362.5C 223.614,362.126 227.948,359.293 230.5,354C 241.991,353.025 253.324,353.358 264.5,355C 260.585,372.804 249.585,383.137 231.5,386C 210.632,390.603 192.132,386.103 176,372.5C 164.304,357.133 161.304,340.133 167,321.5C 174.355,303.643 187.522,292.977 206.5,289.5 Z M 211.5,313.5 C 221.806,311.979 227.806,316.312 229.5,326.5C 220.19,327.498 210.857,327.832 201.5,327.5C 202.154,320.856 205.488,316.189 211.5,313.5 Z"/></g>
<g><path style="opacity:0.934" fill="#f15a2b" d="M 310.5,289.5 C 325.14,288.326 338.474,291.826 350.5,300C 358.773,308.051 363.107,317.884 363.5,329.5C 352.147,329.832 340.814,329.499 329.5,328.5C 326.974,318.821 320.974,315.654 311.5,319C 304.666,323.644 301.999,330.144 303.5,338.5C 302.348,346.081 304.348,352.581 309.5,358C 321.433,363.255 328.766,359.589 331.5,347C 342.161,346.5 352.828,346.333 363.5,346.5C 363.357,364.474 355.023,376.974 338.5,384C 320.604,389.579 303.271,388.246 286.5,380C 270.196,367.533 263.696,351.033 267,330.5C 271.707,306.289 286.207,292.622 310.5,289.5 Z"/></g>
<g><path style="opacity:0.94" fill="#f15a2b" d="M 467.5,289.5 C 486.653,288.186 500.153,296.186 508,313.5C 510.051,320.094 511.718,326.761 513,333.5C 516.697,308.803 530.864,294.303 555.5,290C 596.013,287.68 615.013,306.847 612.5,347.5C 591.5,347.5 570.5,347.5 549.5,347.5C 550.933,356.598 556.266,361.598 565.5,362.5C 571.91,362.465 576.576,359.632 579.5,354C 585,353.833 590.5,353.667 596,353.5C 612.362,353.708 628.862,353.875 645.5,354C 647.982,362.955 653.649,365.621 662.5,362C 664.648,359.925 664.982,357.592 663.5,355C 651.513,352.093 639.513,349.093 627.5,346C 616.067,339.072 611.567,328.905 614,315.5C 617.682,301.82 626.515,293.653 640.5,291C 655.769,287.818 670.435,289.485 684.5,296C 693.184,302.2 697.517,310.7 697.5,321.5C 686.828,321.667 676.161,321.5 665.5,321C 662.465,313.4 657.132,311.233 649.5,314.5C 646.107,319.375 647.44,322.208 653.5,323C 663.676,324.14 673.676,326.14 683.5,329C 691.359,331.526 696.526,336.693 699,344.5C 703.456,367.01 694.623,380.844 672.5,386C 656.105,389.324 640.439,387.324 625.5,380C 618.294,374.083 613.794,366.583 612,357.5C 609.168,369.664 602.002,378.164 590.5,383C 571.887,389.47 553.554,388.803 535.5,381C 521.783,372.744 514.283,360.577 513,344.5C 511.665,357.17 506.831,368.337 498.5,378C 484.386,388.889 469.386,390.222 453.5,382C 451.333,379.833 449.167,377.667 447,375.5C 446.5,388.496 446.333,401.496 446.5,414.5C 434.5,414.5 422.5,414.5 410.5,414.5C 410.5,373.833 410.5,333.167 410.5,292.5C 422.5,292.5 434.5,292.5 446.5,292.5C 446.335,295.85 446.502,299.183 447,302.5C 452.042,295.235 458.875,290.902 467.5,289.5 Z M 560.5,313.5 C 571.019,312.357 576.686,317.024 577.5,327.5C 568.143,327.832 558.81,327.498 549.5,326.5C 550.744,319.936 554.411,315.602 560.5,313.5 Z M 458.5,316.5 C 471.142,317.885 476.808,325.052 475.5,338C 475.791,344.338 474.291,350.172 471,355.5C 463.351,360.998 456.017,360.665 449,354.5C 445.664,346.502 444.664,338.168 446,329.5C 447.718,322.618 451.885,318.285 458.5,316.5 Z"/></g>
<g><path style="opacity:0.955" fill="#f05a2a" d="M 157.5,290.5 C 159.792,290.244 161.959,290.577 164,291.5C 164.5,302.495 164.667,313.495 164.5,324.5C 154.646,323.365 145.813,325.698 138,331.5C 136.438,333.957 135.438,336.624 135,339.5C 134.5,354.496 134.333,369.496 134.5,384.5C 122.833,384.5 111.167,384.5 99.5,384.5C 99.5,353.833 99.5,323.167 99.5,292.5C 111.167,292.5 122.833,292.5 134.5,292.5C 134.334,297.511 134.501,302.511 135,307.5C 139.729,298.063 147.229,292.397 157.5,290.5 Z"/></g>
<g><path style="opacity:0.938" fill="#f05a2b" d="M 367.5,293.5 C 379.5,293.5 391.5,293.5 403.5,293.5C 403.5,324.5 403.5,355.5 403.5,386.5C 391.586,386.821 379.753,386.488 368,385.5C 367.5,354.835 367.333,324.168 367.5,293.5 Z"/></g>
</svg>
